<?xml version="1.0" encoding="UTF-8"?>
<svg id="Layer_2" data-name="Layer 2" xmlns="http://www.w3.org/2000/svg" viewBox="0 0 552.6 240.12">
  <defs>
    <style>
      .cls-1 {
        fill: #d73763;
      }

      .cls-2 {
        fill: #eaa7c9;
      }

      .cls-3 {
        fill: #fff;
      }

      .cls-4 {
        fill: #bf96bd;
      }

      .cls-5 {
        fill: #da3666;
      }

      .cls-6 {
        fill: #c76288;
      }

      .cls-7 {
        fill: #d19bbe;
      }

      .cls-8 {
        fill: #b43768;
      }

      .cls-9 {
        fill: #df9cb1;
      }

      .cls-10 {
        fill: #c4547d;
      }

      .cls-11 {
        fill: #d83b69;
      }

      .cls-12 {
        fill: #dfc0cc;
      }

      .cls-13 {
        fill: #d53865;
      }

      .cls-14 {
        fill: #d22e60;
      }

      .cls-15 {
        fill: #d97ca6;
      }

      .cls-16 {
        fill: #c03e6e;
      }

      .cls-17 {
        fill: #d63c6a;
      }

      .cls-18 {
        fill: #d63462;
      }

      .cls-19 {
        fill: #d63966;
      }

      .cls-20 {
        fill: #d73662;
      }

      .cls-21 {
        fill: #c32f61;
      }

      .cls-22 {
        fill: #cc96ae;
      }

      .cls-23 {
        fill: #d53b67;
      }

      .cls-24 {
        fill: #d53863;
      }

      .cls-25 {
        fill: #da3a68;
      }

      .cls-26 {
        fill: #bd3b70;
      }

      .cls-27 {
        fill: #fefdfe;
      }

      .cls-28 {
        fill: #d63664;
      }

      .cls-29 {
        fill: #e2bce0;
      }
    </style>
  </defs>
  <g id="Layer_1-2" data-name="Layer 1">
    <g>
      <path class="cls-17" d="m344.9,110.71c5.54.17,10.96-.22,15.97-2.95,3.94-2.15,6.59-5.56,7.85-9.61,2.77-8.9,5.45-17.88,7.37-26.99,4.39-20.84,8.29-41.78,12.4-62.67.3-1.51.64-3.03,1.13-4.48.97-2.9,2.72-4.2,5.1-3.98,2.57.23,4.75,2.31,5.08,5.1.48,4.1.88,8.21,1.17,12.32.42,5.83.57,11.69,1.1,17.52,1.02,11.33,2.24,22.65,3.32,33.98.78,8.24,1.49,16.49,2.17,24.74.48,5.77.82,11.56,1.34,17.33.75,8.41,1.67,16.8,2.38,25.21.88,10.43,1.6,20.87,2.4,31.3.5,6.42.98,12.85,1.55,19.27.38,4.35.9,8.68,1.8,13.24.28-.68.68-1.34.82-2.04,2.56-12.09,5.08-24.19,7.62-36.28.12-.55.3-1.09.46-1.64.1.6.21,1.19.39,2.26,2.06-2.45,1.96-4.32.29-6.18.11-.33.22-.65.33-.98,2.74-.07,4.35-1.63,4.87-4.37.24-1.26.71-2.57,1.42-3.63,2.04-3.05.86-6.22-2.8-7.14.45-1.32.89-2.63,1.34-3.95.06.77.11,1.54.17,2.26,1.04.19,1.81.34,2.59.48.07.43.07.77.19,1.05.29.68.63,1.33.95,2,.49-.53.93-1.12,1.49-1.56,1.58-1.27,3.2-2.47,4.81-3.7-.63,2.29-1.26,4.58-1.89,6.86v-.04c-.65.99-1.31,1.99-1.96,2.98-.97,4.09-1.93,8.17-2.9,12.26.01.14-.01.27-.07.4-.14.67-.27,1.34-.41,2.01,0,0,.03-.04.03-.04-.12.1-.32.19-.35.31-1.54,6.21-3.2,12.4-4.54,18.65-.91,4.23-1.22,8.59-2.04,12.85-1.74,9.01-3.69,17.97-5.44,26.98-.9,4.65-1.55,9.35-2.32,14.03,0,.14,0,.28-.04.42-.54.97-1.05,1.97-1.63,2.91-1.68,2.69-3.73,3.16-5.85.94-1.12-1.17-1.52-3.03-2.25-4.58-.28-.58-.58-1.14-.88-1.71.02-.35.04-.7.06-1.05-.09-.3-.18-.61-.27-.91-.29-2.46-.65-4.91-.84-7.37-.34-4.52-.52-9.05-.88-13.57-.95-11.94-1.97-23.87-2.95-35.81-.83-10.01-1.63-20.02-2.47-30.03-.8-9.54-1.66-19.07-2.47-28.6-.66-7.87-1.25-15.76-1.94-23.63-.77-8.85-1.63-17.69-2.44-26.53-.5-5.45-.98-10.89-1.5-16.34-.25-2.63-.56-5.25-1.35-7.93-.86,4.11-1.67,8.22-2.58,12.32-3.21,14.52-6.23,29.08-9.76,43.51-1.89,7.71-5.78,14.47-12.47,19.26-4,2.86-8.5,4.36-13.32,5.02-.52-.06-1.05-.13-1.57-.19,2.37-.88,4.36-2.42,7.3-2.22,1.69.12,3.67-1.79,5.27-3.09,5.49-4.48,8.98-10.25,10.62-17.15.13-.56.09-1.16.13-1.75-.23-.13-.46-.26-.69-.39-1.32,1.48-3.06,2.77-3.88,4.49-2.22,4.67-5.65,7.86-10.31,9.92-1.09.48-2.01,1.59-3.12,1.77-3.39.54-6.82.93-10.24,1.01-.95.02-1.92-1.21-2.89-1.87Z"/>
      <path class="cls-1" d="m441.99,136.61c-1.61,1.23-3.23,2.44-4.81,3.7-.56.45-1,1.04-1.49,1.56-.32-.66-.67-1.32-.95-2-.12-.28-.11-.62-.19-1.05-.79-.15-1.56-.29-2.59-.48-.05-.71-.11-1.48-.17-2.26,3.12-8.54,8.31-15.16,17.32-18.46-.42-.49-.71-.97-1.12-1.29-9.74-7.7-7.6-22.6,4.11-27.01,10.51-3.95,20.77-2.53,30.61,2.66,1.26.67,1.52,1.41.69,2.72-1.26,1.97-2.3,4.07-3.19,5.66-4.59-1.41-8.89-3.19-13.36-3.92-2.98-.49-6.28.22-9.29.97-2.9.72-4.57,3.04-4.8,6.11-.23,3.2,1.31,5.55,4.11,6.87,2.79,1.31,5.73,2.28,8.61,3.4.45.14.9.28,1.34.43.2.02.41.04.61.06.49.01.98.03,1.48.04,4.24-.03,8.47-.05,12.71-.08,1.29-.02,2.58-.04,3.87-.06.73.15,1.46.29,2.19.44.41,0,.82.02,1.23.03,5.17-.09,5.2-.09,6.82-5.82,3.36-11.92,11.21-19.22,23.28-21.17,17.01-2.75,29.96,5.79,33.24,23.21.72,3.83.11,7.91.11,12.1-1.01.07-1.96.14-2.91.2-.47-.08-.94-.24-1.41-.24-12.9,0-25.81.02-38.71.07-.62,0-1.23.25-1.84.38-.16.04-.32.07-.48.1-.98,0-1.97.02-2.95.02-.97,0-1.94.01-2.9.02-5.28,0-10.56-.03-15.83,0-.6,0-1.2.27-1.79.41.05.37-.02.81.16,1.1,5,8.16,2.23,18.46-6.34,22.89-8.89,4.6-18.14,4.97-27.5,1.56-2.8-1.02-5.48-2.4-8.12-3.81-.73-.39-1.09-1.46-1.63-2.22,0,0,0,.04,0,.04,1.59-2.22,3.19-4.44,4.82-6.7.41.23.87.41,1.25.7,5.53,4.27,12.01,5.17,18.68,4.91,2.11-.08,4.26-.95,6.26-1.79,4.89-2.06,5.93-9.72,1.28-13.16-2.51-1.86-5.3-2.79-8.36-2.96-8.6-.47-15.56,2.58-20.6,9.69-1.88-.05-1.24,1.4-1.41,2.37l-.03.08Zm99.26-22.31c.35-.02.69-.05,1.04-.07-.02-.21-.04-.41-.06-.62-.62-9.07-6.51-16.25-14.27-16.98-11.28-1.07-19.19,2.84-22.86,17.7,11.41,0,22.73,0,34.05,0,.7-.01,1.4-.02,2.11-.03Z"/>
      <path class="cls-25" d="m344.9,110.72c.96.66,1.94,1.9,2.89,1.87,3.42-.08,6.85-.47,10.24-1.01,1.1-.18,2.02-1.28,3.12-1.77,4.66-2.06,8.09-5.25,10.31-9.92.82-1.72,2.56-3.01,3.88-4.49.23.13.46.26.69.39-.04.58,0,1.19-.13,1.75-1.63,6.89-5.13,12.67-10.62,17.15-1.6,1.3-3.59,3.21-5.27,3.09-2.94-.21-4.93,1.34-7.3,2.22-.32,0-.65.02-.97.03-4.96-.22-9.92-.44-14.88-.65-5.39-.23-10.78-.45-16.17-.66-1.13-.05-2.28-.17-3.39-.05-1.8.2-3.57.81-5.36.82-3.23.02-6.47-.42-9.7-.4-5.51.04-11.02.28-16.53.47-.45.02-.89.28-1.33.43-.63.05-1.25.1-1.88.15-1.59-.66-2.75-.19-3.51,1.32l-.11.11s-.16-.02-.16-.02c-.56.3-1.12.6-1.68.9l-.09.1s-.13-.05-.13-.05c-.25.16-.49.32-.74.48,0,0,.02-.02.02-.02-.18.14-.35.27-.53.41,0,0-.07.05-.07.05-.29.18-.58.37-.87.55,0,0,0,0,0,0-2.12.28-3.11,1.39-2.99,3.61.12,2.35.03,4.71.03,7.06,0,4.77,0,9.53,0,13.88-1.28.23-2.17.57-3.02.49-1.91-.17-4.47.1-5.54-1-1.49-1.54-2.37-4.11-2.58-6.33-.34-3.47-.26-7.08.29-10.52.82-5.13,3.54-9.21,7.6-12.67,4.18-3.56,8.83-5.43,14.16-5.74,1.81-.11,2.99-.48,3.27-2.4.22-.02.45-.04.67-.06,0,0,.12,0,.12,0,0,0,.17.02.17.02.16,0,.33.01.49.02h1.01c.8,0,1.6-.01,2.4-.01.5,0,1,0,1.5,0,.8,0,1.61,0,2.41,0,.15-.06.31-.09.47-.08,2.38-.38,4.78-.64,7.12-1.2.66-.16,1.12-1.15,1.67-1.75,0,0,.01,0,.01,0,.48-.34.96-.68,1.45-1.01,0,0-.02.03-.02.03.18-.15.36-.31.54-.46,5.46-5.81,7.08-12.52,4.8-20.18-2.09-7.02-6.92-10.68-14.04-11.57-.67-.07-1.35-.13-2.02-.2-1.76-.03-3.52-.05-5.29-.08-3.94,0-7.87.01-11.81.02-.62,0-1.24-.02-1.87-.03-1.18.08-2.35.16-3.53.24.02,1.22.05,2.43.04,3.65-.09,10.16-.19,20.33-.28,30.49,0,0-.15.07-.15.07-3.07,2.25-6.14,4.51-9.21,6.76-.41-1.1-.81-2.21-1.22-3.31-.09-6.18-.18-12.37-.26-18.55.12-.78.34-1.56.34-2.34.03-7.78.08-15.55,0-23.33-.02-1.78.24-3.13,2.04-3.8.47-.01.94-.03,1.41-.04.84.03,1.67.05,2.51.08.46,0,.92.01,1.37.02.36,0,.71.02,1.07.03.3,0,.59,0,.89.01,8.33-.03,16.65-.07,24.98-.1,7.19.66,13.91,2.52,19.33,7.64,7.79,7.36,10.17,19.71,5.85,30.93-.87,2.25-2.28,4.28-3.44,6.41-.48.39-.95.78-1.43,1.17.09.24.17.49.26.73,1.11-.07,2.23-.13,3.34-.2.3.01.61.02.91.03.7.01,1.39.03,2.09.04.92.04,1.84.07,2.76.11.23,0,.46.01.69.02.26,0,.52,0,.78,0,.23,0,.45.02.67.03,1.08,0,2.16,0,3.25,0,.7,0,1.4.01,2.1.02.28-.73.78-1.46.8-2.2.12-5.88.14-11.76.21-17.64,0-.7.17-1.4.27-2.1.22-.07.43-.14.65-.2.31.03.62.07.93.1,2.94.03,5.88.05,8.82.08,0,0,.08.09.08.09.05.34.1.69.14,1.03.05,6.65.09,13.3.14,19.95-.05.06-.15.13-.14.17.04.13.11.26.17.39.03.14.06.29.09.43Z"/>
      <path class="cls-13" d="m232.52,140.74c-1.99,3.87-5.27,6.36-9.09,8.14-7.52,3.51-15.09,4.17-22.63,0-7.16-3.96-10.43-10.25-9.63-18.19.67-6.71,4.72-11.41,11.02-14,7.34-3.02,15.14-3.59,22.92-4.33,1.86-.18,3.72-.47,5.58-.56,1.36-.07,1.8-.65,1.79-1.98-.04-8.12-3.86-12.41-11.97-13.11-5.79-.5-11.34.54-16.56,3.17-1.22.62-2.45,1.22-3.89,1.94-1.05-2.37-2.04-4.57-2.99-6.78-.6-1.4.27-2.05,1.36-2.67,5.46-3.08,11.4-4.68,17.58-4.98,3.85-.19,7.88-.05,11.59.88,9.89,2.47,15.5,9.6,15.65,19.77.2,13.58.05,27.17.05,40.76-3.16,0-6.31-.02-9.47-.03,0-.48-.02-.96-.03-1.43-.05-2.12-.09-4.24-.21-6.35,0-.1-.71-.16-1.08-.25Zm.21-21.27c-7.31.91-14.19,1.65-21.01,2.71-1.92.3-3.83,1.34-5.5,2.42-3.56,2.29-4.53,5.87-3.85,9.81.62,3.61,2.83,6.22,6.37,7.34,8.08,2.56,19.8.3,22.96-11.97.78-3.05.66-6.33,1.02-10.31Z"/>
      <path class="cls-28" d="m30.39,143.93c-.09-10.04-.18-20.08-.27-30.12-.05-6.24-.09-12.47-.13-18.71,0-.32,0-.65-.01-.97v-5.48h9.49c.21,3.39.4,6.59.64,10.46.76-.95,1.19-1.43,1.57-1.96,4.59-6.48,10.78-9.72,18.79-9.94,5.63-.16,10.84.66,15.44,4.04,5.74,4.22,7.84,10.33,8.71,17.06.01.16.03.32.04.48,0,12.2.01,24.4.01,36.6,0,.82-.01,1.63-.02,2.45.02.33.04.65.05.98-3.59.52-7.19,1.28-10.66-.54-.03-10.73-.06-21.46-.09-32.18-.03-1.47-.05-2.94-.08-4.4-.04-.57-.08-1.13-.12-1.7-.1-.57-.21-1.14-.31-1.72-2.29-7.39-5.9-11.03-11.52-11.18-3.22-.09-6.46.32-9.69.5-.27.14-.53.28-.8.41,0,0-.02,0-.02,0-.96.52-1.91,1.05-2.87,1.57,0,0,.06-.03.05-.03-.68.63-1.36,1.26-2.05,1.89,0,0,0,0,0,0-.16.17-.32.34-.48.51,0,0,.01-.02.01-.02-.16.18-.32.36-.49.55,0,0,.04-.04.04-.04-.16.19-.33.39-.49.58,0,0,.06-.06.06-.06-.34.57-.69,1.14-1.03,1.71,0,0-.05.18-.05.18-.14.21-.28.42-.42.62,0,0,.06-.07.06-.07-.19.37-.39.74-.58,1.11.05.13.01.22-.11.29-.32.31-.85.57-.93.93-.7,3.36-1.78,6.73-1.86,10.12-.25,9.64-.09,19.28-.09,28.93,0,1.14.16,2.51-1.53,2.47-2.73-.06-5.46-.3-8.19-.46-.08-.34-.16-.67-.24-1.01,0,0,.14.04.14.04,0-1.3,0-2.6,0-3.9Z"/>
      <path class="cls-24" d="m140.03,93.51c-1.55,2.61-2.98,5.03-4.46,7.54-1.72-.87-3.2-1.71-4.75-2.37-5.23-2.22-10.66-2.85-16.2-1.47-3.05.76-5.21,2.64-5.75,5.93-.53,3.23,1.02,5.67,3.59,7.16,2.64,1.54,5.59,2.55,8.44,3.71,3.98,1.63,8.1,2.97,11.96,4.84,5.88,2.86,9.24,7.52,9.02,14.35-.23,6.89-3.37,11.97-9.49,15.06-5,2.53-10.45,3.96-16,3.38-7.27-.76-14.39-2.47-20.47-7.59,1.54-2.46,3.07-4.89,4.75-7.57,1.1.65,2.1,1.3,3.15,1.84,6.01,3.13,12.25,5.13,19.12,3.58,1.41-.32,2.76-.91,4.12-1.44,4.85-1.89,5.82-10.33.82-13.02-2.98-1.61-6.24-2.68-9.35-4.06-4.73-2.1-9.67-3.86-14.09-6.48-4.83-2.86-7.07-7.82-6.5-13.3.63-6.07,3.53-11.27,9.47-13.8,11.1-4.73,21.74-3.1,31.93,2.9.26.15.43.47.71.79Z"/>
      <path class="cls-18" d="m182.77,97.56c-4.71,0-9.43,0-14.14,0-.18,0-.36,0-.54-.01-.15.61-.42,1.21-.43,1.82-.03,11.11-.03,22.23.01,33.34,0,.63.42,1.26.65,1.89.09.05.18.09.28.12.53,3.56,2.42,6.29,5.97,6.82,3.01.45,6.18-.13,9.86-.28,0,2.15.06,4.71-.06,7.26-.02.44-.74,1.04-1.25,1.22-5.17,1.79-10.39,2.34-15.64.33-6.2-2.37-9.12-7.31-9.51-13.52-.47-7.61-.32-15.25-.35-22.88-.02-5.03.13-10.07.2-15.1-.12-.2-.25-.39-.37-.59-2.39-.12-4.78-.26-7.17-.37-.96-.04-1.92,0-3.02,0v-8.87h10.11v-17.62c3.24,0,6.21,0,9.19,0,.36.58.99,1.15,1.02,1.75.12,2.51,0,5.04.08,7.55.09,2.65.3,5.3.47,7.95.06.08.14.11.23.09,0,0,.22.06.22.06,4.86,0,9.73,0,14.52,0,.16,1.86.27,3.06.37,4.26.06,1.39.11,2.78.17,4.17-.29.21-.58.41-.87.62Z"/>
      <path class="cls-11" d="m10.83,132.24c0,.48,0,.96,0,1.43-.23.17-.46.34-.68.5.23.17.45.34.68.5,0,2.11-.01,4.22-.02,6.34-.11,2.28-1.75,4.55-.02,6.83,0,.31-.02.62-.03.94-2.2.02-4.39.04-6.59.05q-3.52,0-3.53-3.46c0-25.54,0-51.08,0-76.62q0-4.27,4.12-3.92c.4.03.81,0,1.22.01,2.83.07,3.84,1.18,3.97,4.05.05,1.11.47,2.2.72,3.31,0,1.45,0,2.89,0,4.34,0,.67,0,1.34,0,2.01,0,2.91,0,5.82,0,8.74-.25.61-.72,1.22-.72,1.84-.04,13.71-.03,27.43.02,41.14,0,.66.55,1.32.84,1.98Z"/>
      <path class="cls-1" d="m430.45,140.04c3.66.92,4.83,4.08,2.8,7.14-.71,1.06-1.18,2.37-1.42,3.63-.52,2.74-2.13,4.29-4.87,4.37.2-1.32.41-2.65.62-4.03-1.33-.43-2.5-.74-3.63-1.18-4.79-1.84-7.72-5.32-7.82-10.45-.2-9.75-.02-19.51,0-29.27.18,0,.36,0,.54,0q.96,6.19,2.31,7.22c.05-.94.15-1.71.12-2.48-.14-3.32-.5-6.65-.43-9.97.09-3.95.48-7.9.86-11.83.25-2.59-.73-3.87-2.86-3.45,0-6.51,0-13.02,0-19.53.43.19.85.4,1.29.57.84.33,2.18,1.14,2.44.88.95-.96,1.75-2.48.48-3.6-1.16-1.02-2.79-1.51-4.2-2.24,0-1.45,0-2.91,0-4.36,0-3.32,2.1-5.07,5.39-4.29,1.03.24,2.4.88,2.76,1.71.58,1.33.45,2.98.62,4.49-.3-.22-.69-.38-.88-.67-.43-.67-.75-1.4-1.11-2.11-.81.51-1.62,1.01-2.83,1.78,2.17.8,2.95,1.53,2.63,3.59-.22,1.38-.18,3.71,2.2,4.25.16,8.46.32,16.93.48,25.39-1.83-.07-1.87,1.44-1.88,2.51-.09,6.3-.09,12.61,0,18.91.02,1.07.05,2.59,1.89,2.51.17,5.83.28,11.67.55,17.49.05,1.01.76,1.99,1.16,2.98.18,0,.27.09.29.27.31.15.61.3.92.44.53-.22,1.07-.45,1.6-.67Z"/>
      <path class="cls-20" d="m504.15,127.5c.58.06,1.16.12,1.75.18.06.16.17.25.34.28,3.62,13.7,21.52,18.84,33.89,9.29,1.27-.98,2.68-2.66,3.93-2.57,1.27.09,2.43,1.95,3.61,3.06,2.27,2.14,2.23,2.13.09,4.51-4.81,5.35-11.13,7.71-17.95,8.98-12.34,2.31-25.38-4.52-30.74-13.81-1.49-2.58-2.49-5.45-3.72-8.18-.08-.49-.16-.99-.24-1.48,0,0,.11-.11.12-.1.54-.03,1.07-.05,1.61-.08,2.22,0,4.44,0,6.66,0,.22-.03.45-.05.67-.08Z"/>
      <path class="cls-19" d="m364.44,150.35c-13.22,4.98-30.93-3.41-30.2-24.31,3.43,0,6.87,0,10.31,0,.49,2.11.87,4.26,1.49,6.33,1.59,5.3,5.96,8.91,13.29,9.59,1.21.11,2.43.07,3.65.09,1.6-.25,3.23-.36,4.78-.79,2.06-.57,3.58.49,3.45,2.63-.03.5.04,1.01.06,1.51-.73.85-1.33,1.89-2.22,2.5-1.43.97-3.06,1.64-4.61,2.44Z"/>
      <path class="cls-21" d="m384.23,99.99c.84-2.53,1.62-5.08,2.56-7.57.24-.65.95-1.13,1.44-1.68.34.65.96,1.3.98,1.96.13,4.04.12,8.09.15,12.13.08.18.15.36.23.54.1,14.52.2,29.03.3,43.55,0,.23-.11.46-.2.82-2.54.19-5.09.33-7.64.58-1.85.18-2.61-.36-2.56-2.4.07-2.69-.27-5.4-.44-8.19-1.7,1.68-3.25,3.22-4.79,4.75,1.16-2.4,2.56-4.56,5.29-5.43.17.35.42.69.48,1.05.34,2.15.52,4.32.99,6.44.41,1.85,2.79,2.95,5.36,2.15,1.01-.31,2.23-1.82,2.31-2.87.3-3.55.14-7.14.14-10.72,0-7.15,0-14.3,0-21.45-.39-4.17,1.04-8.49-1.68-12.49-.96-1.41-1.49-1.87-2.92-1.19Z"/>
      <path class="cls-17" d="m285.81,110.35c-.28,1.91-1.46,2.29-3.27,2.4-5.33.31-9.98,2.18-14.16,5.74-4.06,3.46-6.78,7.54-7.6,12.67-.55,3.45-.63,7.05-.29,10.52.22,2.22,1.09,4.8,2.58,6.33,1.07,1.1,3.63.83,5.54,1,.85.08,1.74-.27,3.02-.49,0-4.35,0-9.12,0-13.88,0-2.35.09-4.71-.03-7.06-.11-2.22.87-3.34,2.99-3.61-.71.95-1.42,1.9-2.13,2.86-.04.23-.08.46-.12.69.05,7.1.11,14.19.16,21.29-.13.34-.27.69-.4,1.03-.8,0-1.59,0-2.39,0-.18,0-.36,0-.55,0-.47,0-.94,0-1.41,0-.18,0-.36,0-.54-.01-2.68.09-5.33.06-7.7-1.49.19-.08.38-.17.57-.25-.2-.07-.4-.15-.59-.22-.02-4.39-.25-8.78-.03-13.16.7-14.03,12.25-24.63,26.33-24.34Z"/>
      <path class="cls-26" d="m416.68,70.21c0,6.51,0,13.02,0,19.53,0,6.83,0,13.67,0,20.5-.18,0-.36,0-.54,0-.07-14.94-.14-29.88-.2-44.83-.01-2.84,0-5.68,0-9.08,3.71.23,7.17.45,10.63.66-.01.5-.02,1-.03,1.5.18,25.8.34,51.61.55,77.41.01,1.36.38,2.71.58,4.07-.4-.99-1.11-1.97-1.16-2.98-.27-5.83-.39-11.66-.55-17.49,0-7.97,0-15.95,0-23.93-.16-8.46-.32-16.93-.48-25.39,0-2.28,0-4.56-.01-6.84-.17-1.51-.04-3.15-.62-4.49-.36-.83-1.73-1.47-2.76-1.71-3.3-.78-5.39.96-5.39,4.29,0,1.45,0,2.91,0,4.36,0,1.46,0,2.93,0,4.39Z"/>
      <path class="cls-14" d="m379.55,139.06c-2.73.86-4.14,3.02-5.29,5.43,0,0,0-.03,0-.03-.17.17-.35.35-.52.52,0,0,.04-.04.04-.04-.18.17-.35.35-.53.52,0,0,.03-.02.03-.02-.66-.01-1.33-.02-1.99-.04-.02-.5-.09-1.01-.06-1.51.12-2.14-1.39-3.2-3.45-2.63-1.55.43-3.18.54-4.78.79,9.22-1.8,13.53-8.17,15.55-16.68.34-.81.69-1.62,1.03-2.43,1.53,2.44,1.25,5.21,1.13,7.84-.13,2.77-.75,5.52-1.15,8.27Z"/>
      <path class="cls-16" d="m420.11,233.86c.77-4.68,1.42-9.38,2.32-14.03,1.75-9,3.7-17.97,5.44-26.98.82-4.26,1.13-8.61,2.04-12.85,1.34-6.25,3-12.44,4.54-18.65.03-.13.23-.21.35-.31-.79,4.7-1.47,9.43-2.41,14.11-3.64,18.14-7.35,36.27-11.06,54.39-.3,1.46-.81,2.88-1.23,4.32Z"/>
      <path class="cls-10" d="m10.69,72.2c-.25-1.1-.67-2.19-.72-3.31-.14-2.87-1.15-3.98-3.97-4.05-.41,0-.82.02-1.22-.01q-4.12-.35-4.12,3.92c0,25.54,0,51.08,0,76.62q0,3.46,3.53,3.46c2.2,0,4.39-.03,6.59-.05-.28.31-.55.89-.84.89-3.22.06-6.44.04-9.92.04,0-7.12,0-14,0-20.87,0-.35,0-.71,0-1.06,0-20.52.02-41.04.03-61.56,0-.81.07-1.61.11-2.42.19-.04.38-.08.56-.13,3.24.09,6.48.17,9.72.26.1.14.21.28.31.42-.01,2.61-.03,5.22-.04,7.84Z"/>
      <path class="cls-14" d="m384.23,99.99c1.43-.67,1.96-.22,2.92,1.19,2.72,4,1.28,8.32,1.68,12.49-.59-.71-1.4-1.33-1.7-2.14-.44-1.19-.47-2.53-.75-3.79-.4-1.83-1.3-2.07-2.84-1.03-1.87,1.26-2.56,2.9-2.6,5.15-.02,1.26-.88,2.5-1.36,3.75.31-2.62.61-5.24.92-7.87,0,0-.02.03-.02.03.17-.33.35-.66.52-.99,0,0-.01.02-.01.02.31-.58.63-1.16.94-1.74.18-.39.37-.78.55-1.17.47-1.03.95-2.07,1.42-3.1.11-.27.22-.55.33-.82Z"/>
      <path class="cls-10" d="m10.83,132.24c-.29-.66-.83-1.32-.84-1.98-.05-13.71-.06-27.43-.02-41.14,0-.61.47-1.22.72-1.84.06,5.83.16,11.66.17,17.49.02,9.16-.02,18.31-.03,27.47Z"/>
      <path class="cls-22" d="m282.48,120.13c.63-.05,1.25-.1,1.88-.15,22.46.01,44.91.03,67.37.04.32,0,.65-.02.97-.03.52.06,1.05.13,1.57.19-1.68.21-3.36.59-5.03.59-22.29-.05-44.58-.16-66.87-.25.03-.13.07-.26.11-.39Z"/>
      <path class="cls-8" d="m30.48,148.81c2.73.16,5.46.4,8.19.46,1.68.04,1.53-1.33,1.53-2.47,0-9.64-.16-19.29.09-28.93.09-3.39,1.17-6.76,1.86-10.12.07-.36.61-.62.93-.93-.66,2.92-1.32,5.83-1.98,8.75-.13,1.02-.38,2.05-.39,3.07-.03,7.99-.01,15.99.02,23.98,0,.95.18,1.9.28,2.85v4.57c-3.73-.23-7.26-.45-10.78-.66.09-.19.17-.38.26-.56Z"/>
      <path class="cls-15" d="m263.38,63.68c-1.8.67-2.06,2.02-2.04,3.8.09,7.78.04,15.55,0,23.33,0,.78-.22,1.56-.34,2.34-.09-.22-.27-.44-.27-.66.02-9.57.06-19.13.1-28.7.19-.14.38-.27.58-.41.66.1,1.31.2,1.97.3Z"/>
      <path class="cls-6" d="m507.49,123.37c.61-.13,1.23-.38,1.84-.38,12.9-.04,25.81-.06,38.71-.07.47,0,.94.16,1.41.24-4.46.1-8.93.25-13.39.29-7.56.06-15.13.03-22.69.05-.5,0-1,0-1.5,0-1.46-.04-2.92-.09-4.38-.13Z"/>
      <path class="cls-16" d="m409.44,231.84c.29.57.6,1.13.88,1.71.74,1.54,1.13,3.4,2.25,4.58,2.12,2.23,4.17,1.76,5.85-.94.59-.94,1.09-1.94,1.63-2.91.02,3.13-1.73,5.52-4.24,5.8-2.9.33-5.21-1.38-5.9-4.48-.27-1.23-.33-2.5-.48-3.76Z"/>
      <path class="cls-26" d="m168.32,134.6c-.23-.63-.65-1.26-.65-1.89-.04-11.11-.04-22.23-.01-33.34,0-.61.28-1.21.43-1.82.07,9.29.14,18.58.21,27.87.03,2.43.06,4.86.1,7.29-.02.63-.05,1.27-.07,1.9Z"/>
      <path class="cls-4" d="m41,145.47c-.1-.95-.27-1.9-.28-2.85-.03-7.99-.04-15.99-.02-23.98,0-1.02.25-2.05.39-3.07-.03,9.97-.06,19.94-.1,29.9Z"/>
      <path class="cls-29" d="m168.29,125.41c-.07-9.29-.14-18.58-.21-27.87.18,0,.36,0,.54.01,0,8.42.01,16.84,0,25.26,0,.86-.21,1.73-.32,2.59Z"/>
      <path class="cls-16" d="m435.25,158.68c.96-4.09,1.93-8.17,2.9-12.26-.97,4.09-1.93,8.17-2.9,12.26Z"/>
      <path class="cls-12" d="m295.61,63.68c-8.33.03-16.65.07-24.98.1.13-.09.27-.25.4-.25,8.05-.04,16.11-.06,24.16-.07.14,0,.28.15.42.22Z"/>
      <path class="cls-21" d="m380.5,107.76c-.31,2.62-.61,5.24-.92,7.87,0,.49,0,.98,0,1.47,0,.81,0,1.62,0,2.43,0,1.14,0,2.28-.01,3.42-.34.81-.69,1.62-1.03,2.43.04-.63.08-1.27.13-1.9.06-.53.12-1.05.18-1.58-.02-2.81.07-5.62-.11-8.42-.15-2.2.13-4.14,1.78-5.71Z"/>
      <path class="cls-21" d="m371.28,145.41c.66.01,1.33.02,1.99.04-2.18,3.01-5.44,4.07-8.82,4.9,1.55-.8,3.18-1.47,4.61-2.44.89-.6,1.49-1.65,2.22-2.5Z"/>
      <path class="cls-7" d="m183.47,92.77c-.11-1.2-.21-2.4-.37-4.26-4.8,0-9.66,0-14.52,0,4.59-.09,9.18-.22,13.76-.21.47,0,1.26.85,1.34,1.39.15.99-.12,2.05-.21,3.08Z"/>
      <path class="cls-4" d="m168.12,88.36c-.16-2.65-.38-5.3-.47-7.95-.08-2.52.04-5.04-.08-7.55-.03-.6-.66-1.17-1.02-1.75,1.75-1.12,1.58.22,1.59,1.26.02,5.11.02,10.23.02,15.34-.02.22-.03.43-.05.65Z"/>
      <path class="cls-1" d="m426.63,156.16c1.67,1.86,1.77,3.73-.29,6.18-.19-1.07-.29-1.67-.39-2.26.23-1.31.46-2.61.69-3.92Z"/>
      <path class="cls-29" d="m483.53,123.91c.6-.14,1.2-.41,1.79-.41,5.28-.02,10.56,0,15.83,0-2.23.13-4.47.34-6.7.38-3.64.07-7.28.02-10.92.03Z"/>
      <path class="cls-17" d="m303.84,107.29c-.55.61-1.01,1.6-1.67,1.75-2.34.55-4.74.82-7.12,1.2l8.79-2.95Z"/>
      <path class="cls-6" d="m74.04,148.29c3.47,1.82,7.07,1.06,10.66.54-.48.34-.95.94-1.45.96-2.56.11-5.13.06-7.69.1-1.13.02-1.98-.15-1.52-1.6Z"/>
      <path class="cls-6" d="m233.84,148.77c3.16.01,6.31.02,9.47.03-1.09,1.37-8.53,1.52-9.54.19-.03-.04.04-.15.07-.22Z"/>
      <path class="cls-2" d="m277.47,73.83c3.94,0,7.87-.01,11.81-.02-3.94,0-7.87.01-11.81.02Z"/>
      <path class="cls-6" d="m232.52,140.74c.38.08,1.08.14,1.08.25.12,2.11.15,4.23.21,6.35-.14-1.56-.21-3.14-.45-4.69-.1-.66-.55-1.28-.85-1.91Z"/>
      <path class="cls-15" d="m261.26,111.7c.41,1.1.81,2.21,1.22,3.31-.24.47-.48.94-.72,1.41-.29-.18-.57-.37-.86-.55.12-1.39.24-2.78.35-4.17Z"/>
      <path class="cls-10" d="m10.79,147.85c-1.72-2.28-.08-4.55.02-6.83,0,2.28-.02,4.55-.02,6.83Z"/>
      <path class="cls-6" d="m73.87,111.7c.03,1.47.05,2.94.08,4.4-.03-1.47-.05-2.94-.08-4.4Z"/>
      <path class="cls-9" d="m319.51,110.36c-1.11.07-2.23.13-3.34.2-.09-.24-.17-.49-.26-.73.48-.39.95-.78,1.43-1.17.72.57,1.44,1.13,2.16,1.7Z"/>
      <path class="cls-15" d="m344.43,88.65c-2.94-.03-5.88-.05-8.82-.08,2.94.03,5.88.05,8.82.08Z"/>
      <path class="cls-6" d="m485.5,114.18c-1.29.02-2.58.04-3.87.06,1.29-.02,2.58-.04,3.87-.06Z"/>
      <path class="cls-17" d="m282.48,120.13c-.04.13-.08.26-.11.39-.29.03-.57.07-.86.1-.22.09-.44.18-.66.27-.63.19-1.26.38-1.89.56.76-1.52,1.92-1.99,3.51-1.32Z"/>
      <path class="cls-21" d="m383.9,100.81c-.47,1.03-.95,2.07-1.42,3.1.47-1.03.95-2.07,1.42-3.1Z"/>
      <path class="cls-8" d="m48.54,99.59c.96-.52,1.91-1.05,2.87-1.57-.96.52-1.91,1.05-2.87,1.57Z"/>
      <path class="cls-8" d="m46.54,101.45c.68-.63,1.36-1.26,2.05-1.89-.68.63-1.36,1.26-2.05,1.89Z"/>
      <path class="cls-8" d="m30.39,143.93c0,1.3,0,2.6,0,3.9,0-1.3,0-2.6,0-3.9Z"/>
      <path class="cls-10" d="m10.68,78.54c0-.67,0-1.34,0-2.01,0,.67,0,1.34,0,2.01Z"/>
      <path class="cls-2" d="m272.07,74.04c1.18-.08,2.35-.16,3.53-.24-1.18.08-2.35.16-3.53.24Z"/>
      <path class="cls-16" d="m434.77,161.09c.14-.67.27-1.34.41-2.01-.14.67-.27,1.34-.41,2.01Z"/>
      <path class="cls-29" d="m504.06,123.49c.98,0,1.97-.02,2.95-.02l-2.95.02Z"/>
      <path class="cls-6" d="m488.92,114.65c-.41-.01-.82-.02-1.23-.03.41.01.82.02,1.23.03Z"/>
      <path class="cls-12" d="m267.3,63.72c-.84-.03-1.67-.05-2.51-.08.84.03,1.67.05,2.51.08Z"/>
      <path class="cls-21" d="m381.93,105.08c-.31.58-.63,1.16-.94,1.74.31-.58.63-1.16.94-1.74Z"/>
      <path class="cls-6" d="m84.65,147.85c0-.82.01-1.63.02-2.45,0,.82-.01,1.63-.02,2.45Z"/>
      <path class="cls-8" d="m44.17,104.68c.34-.57.69-1.14,1.03-1.71-.34.57-.69,1.14-1.03,1.71Z"/>
      <path class="cls-17" d="m294.59,110.32c-.8,0-1.61,0-2.41,0,.8,0,1.61,0,2.41,0Z"/>
      <path class="cls-17" d="m290.68,110.33c-.8,0-1.6,0-2.4,0,.8,0,1.6,0,2.4,0Z"/>
      <path class="cls-2" d="m294.56,73.89c.67.07,1.35.13,2.02.2-.67-.07-1.35-.13-2.02-.2Z"/>
      <path class="cls-17" d="m277.02,122.45c.56-.3,1.12-.6,1.68-.9-.56.3-1.12.6-1.68.9Z"/>
      <path class="cls-16" d="m409.23,229.88c.09.3.18.61.27.91-.09-.3-.18-.61-.27-.91Z"/>
      <path class="cls-9" d="m322.5,110.43c-.7-.01-1.39-.03-2.09-.04.7.02,1.39.03,2.09.04Z"/>
      <path class="cls-9" d="m29.98,94.14c0,.32,0,.65.01.97,0-.32,0-.65-.01-.97Z"/>
      <path class="cls-9" d="m332.76,110.62c-.7,0-1.4-.01-2.1-.02.7,0,1.4.01,2.1.02Z"/>
      <path class="cls-17" d="m305.3,106.27c-.48.34-.96.68-1.45,1.01.48-.34.96-.68,1.45-1.01Z"/>
      <path class="cls-10" d="m10.83,134.68l-.68-.5c.23-.17.46-.34.68-.5,0,.34,0,.67,0,1.01Z"/>
      <path class="cls-29" d="m168.32,134.6c.02-.63.05-1.27.07-1.9.07.67.14,1.34.21,2.01-.1-.03-.19-.07-.28-.12Z"/>
      <path class="cls-6" d="m466.83,114.22c-.45-.14-.9-.28-1.34-.43.45.14.9.28,1.34.43Z"/>
      <path class="cls-6" d="m73.44,108.28c.1.57.21,1.14.31,1.72-.1-.57-.21-1.14-.31-1.72Z"/>
      <path class="cls-6" d="m468.92,114.32c-.49-.01-.98-.03-1.48-.04.49.01.98.03,1.48.04Z"/>
      <path class="cls-15" d="m272.12,149.83c.13-.34.27-.69.4-1.03-.13.34-.27.69-.4,1.03Z"/>
      <path class="cls-7" d="m378.83,121.89c-.06.53-.12,1.05-.18,1.58.06-.53.12-1.05.18-1.58Z"/>
      <path class="cls-9" d="m30.48,148.81c-.09.19-.17.38-.26.56,0-.53.02-1.05.02-1.58.08.34.16.67.24,1.01Z"/>
      <path class="cls-2" d="m426.52,58.52c.01-.5.02-1,.03-1.5-.01.5-.02,1-.03,1.5Z"/>
      <path class="cls-9" d="m495.1,127.77c.08.49.16.99.24,1.48-.08-.49-.16-.99-.24-1.48Z"/>
      <path class="cls-9" d="m496.83,127.58c-.54.03-1.07.05-1.61.08.54-.03,1.07-.05,1.61-.08Z"/>
      <path class="cls-29" d="m511.87,123.5c.5,0,1,0,1.5,0-.5,0-1,0-1.5,0Z"/>
      <path class="cls-7" d="m182.77,97.56c.29-.21.58-.41.87-.62-.29.21-.58.41-.87.62Z"/>
      <path class="cls-12" d="m0,127.79c0,.35,0,.71,0,1.06,0-.35,0-.71,0-1.06Z"/>
      <path class="cls-17" d="m274.61,123.97c.29-.18.58-.37.87-.55-.29.18-.58.37-.87.55Z"/>
      <path class="cls-25" d="m259.51,147.85c.2.07.4.15.59.22-.19.08-.38.17-.57.25,0-.16-.02-.32-.02-.48Z"/>
      <path class="cls-21" d="m381,106.8c-.17.33-.35.66-.52.99.17-.33.35-.66.52-.99Z"/>
      <path class="cls-8" d="m43.19,106.53c.19-.37.39-.74.58-1.11-.19.37-.39.74-.58,1.11Z"/>
      <path class="cls-26" d="m428.86,140.71c-.3-.15-.61-.3-.92-.44.3.15.61.3.92.44Z"/>
      <path class="cls-15" d="m344.65,89.77c-.05-.34-.1-.69-.14-1.03.05.34.1.69.14,1.03Z"/>
      <path class="cls-12" d="m269.75,63.76c-.36,0-.71-.02-1.07-.03.36,0,.71.02,1.07.03Z"/>
      <path class="cls-2" d="m84.66,108.8c-.01-.16-.03-.32-.04-.48.07.11.14.22.19.34.01.03-.09.1-.14.15Z"/>
      <path class="cls-15" d="m344.82,110.28c-.06-.13-.14-.25-.17-.39-.01-.04.09-.11.14-.17.01.19.02.37.03.56Z"/>
      <path class="cls-15" d="m334.68,88.47c-.22.07-.43.14-.65.2.22-.07.43-.14.65-.2Z"/>
      <path class="cls-9" d="m325.95,110.56c-.23,0-.46-.01-.69-.02.23,0,.46.01.69.02Z"/>
      <path class="cls-9" d="m327.4,110.6c-.22,0-.45-.02-.67-.03.22,0,.45.02.67.03Z"/>
      <path class="cls-9" d="m506.24,127.96c-.16-.03-.28-.13-.34-.28.11.09.23.19.34.28Z"/>
      <path class="cls-9" d="m504.15,127.5c-.22.03-.45.06-.67.08.22-.03.45-.06.67-.08Z"/>
      <path class="cls-17" d="m305.82,105.84c-.18.15-.36.31-.54.46.18-.15.36-.31.54-.46Z"/>
      <path class="cls-12" d="m261.41,63.38c-.19.14-.38.27-.58.41.19-.14.38-.27.58-.41Z"/>
      <path class="cls-12" d="m.7,63.68c-.19.04-.38.08-.56.13.19-.04.38-.08.56-.13Z"/>
      <path class="cls-15" d="m271.69,108.25s.15-.07.15-.07c-.05.02-.1.04-.15.07Z"/>
      <path class="cls-15" d="m272.36,127.5c.04-.23.08-.46.12-.69-.04.23-.08.46-.12.69Z"/>
      <path class="cls-17" d="m275.55,123.37c.18-.14.35-.27.53-.41-.18.14-.35.27-.53.41Z"/>
      <path class="cls-6" d="m389.59,105.37c-.08-.18-.15-.36-.23-.54.08.18.15.36.23.54Z"/>
      <path class="cls-21" d="m373.73,144.98c.17-.17.35-.35.52-.52-.17.17-.35.35-.52.52Z"/>
      <path class="cls-21" d="m373.24,145.47c.18-.17.35-.35.53-.52-.18.17-.35.35-.53.52Z"/>
      <path class="cls-8" d="m43.71,105.49c.14-.21.28-.42.42-.62-.14.21-.28.42-.42.62Z"/>
      <path class="cls-8" d="m45.14,103.03c.16-.19.33-.39.49-.58-.16.19-.33.39-.49.58Z"/>
      <path class="cls-8" d="m45.59,102.5c.16-.18.32-.36.49-.55-.16.18-.32.36-.49.55Z"/>
      <path class="cls-17" d="m276.06,122.98c.25-.16.49-.32.74-.48-.25.16-.49.32-.74.48Z"/>
      <path class="cls-15" d="m10.73,64.36c-.1-.14-.21-.28-.31-.42.1.14.21.28.31.42Z"/>
      <path class="cls-8" d="m46.07,101.97c.16-.17.32-.34.48-.51-.16.17-.32.34-.48.51Z"/>
      <path class="cls-7" d="m168.12,88.36c.02-.22.03-.43.05-.65.06.25.12.49.19.74-.1.02-.18,0-.23-.09Z"/>
      <path class="cls-17" d="m287.26,110.35c-.16,0-.33-.01-.49-.02.16,0,.33.01.49.02Z"/>
      <path class="cls-15" d="m267.24,149.82c.18,0,.36,0,.54.01-.18,0-.36,0-.54-.01Z"/>
      <path class="cls-15" d="m269.18,149.82c.18,0,.36,0,.55,0-.18,0-.36,0-.55,0Z"/>
      <path class="cls-12" d="m157.45,97.97c.12.2.25.39.37.59-.12-.2-.25-.39-.37-.59Z"/>
      <path class="cls-8" d="m51.42,98.02c.27-.14.53-.28.8-.41-.27.14-.53.28-.8.41Z"/>
      <path class="cls-22" d="m280.86,120.89c.22-.09.44-.18.66-.27-.22.09-.44.18-.66.27Z"/>
      <polygon class="cls-17" points="286.6 110.3 286.49 110.3 286.55 110.14 286.6 110.3"/>
      <path class="cls-3" d="m443.44,134.16c5.04-7.11,12-10.16,20.6-9.69,3.07.17,5.85,1.09,8.36,2.96,4.64,3.44,3.61,11.1-1.28,13.16-1.99.84-4.15,1.71-6.26,1.79-6.67.25-13.14-.65-18.68-4.91-.38-.29-.84-.47-1.25-.7-1.63,2.27-3.22,4.48-4.82,6.7.63-2.29,1.26-4.58,1.89-6.86,0,0,.03-.08.03-.08.47-.79.94-1.58,1.41-2.37Z"/>
      <path class="cls-27" d="m539.15,114.34h-34.05c3.66-14.86,11.58-18.76,22.86-17.7,7.77.73,13.66,7.91,14.27,16.98.02.21.04.41.06.62-.35.02-.69.05-1.04.07-.7.01-1.4.02-2.11.03Z"/>
      <path class="cls-17" d="m443.44,134.16c-.47.79-.94,1.58-1.41,2.37.17-.97-.47-2.42,1.41-2.37Z"/>
      <path class="cls-9" d="m539.15,114.34c.7-.01,1.4-.02,2.11-.03-.7.01-1.4.02-2.11.03Z"/>
      <path class="cls-9" d="m542.3,114.24c-.02-.21-.04-.41-.06-.62.02.21.04.41.06.62Z"/>
      <path class="cls-17" d="m351.73,120.02c-22.46-.01-44.91-.03-67.37-.04.44-.15.88-.41,1.33-.43,5.51-.19,11.02-.43,16.53-.47,3.23-.02,6.47.42,9.7.4,1.79-.01,3.56-.62,5.36-.82,1.12-.12,2.26,0,3.39.05,5.39.21,10.78.43,16.17.66,4.96.21,9.92.43,14.88.65Z"/>
      <path class="cls-27" d="m232.72,119.47c-.37,3.98-.24,7.26-1.02,10.31-3.16,12.27-14.89,14.52-22.96,11.97-3.54-1.12-5.75-3.74-6.37-7.34-.68-3.93.28-7.52,3.85-9.81,1.67-1.07,3.58-2.12,5.5-2.42,6.82-1.06,13.7-1.79,21.01-2.71Z"/>
      <path class="cls-23" d="m416.67,110.25c0-6.83,0-13.67,0-20.5,2.13-.42,3.1.86,2.86,3.45-.37,3.94-.77,7.89-.86,11.83-.07,3.32.29,6.64.43,9.97.03.77-.07,1.54-.12,2.48q-1.35-1.04-2.31-7.22Z"/>
      <path class="cls-23" d="m425.93,95.6c0,7.98,0,15.95,0,23.93-1.83.08-1.87-1.43-1.89-2.51-.09-6.3-.09-12.61,0-18.91.02-1.08.06-2.58,1.88-2.51Z"/>
      <path class="cls-23" d="m416.68,70.21c0-1.46,0-2.93,0-4.39,1.42.73,3.04,1.22,4.21,2.24,1.28,1.12.47,2.64-.48,3.6-.26.26-1.6-.54-2.44-.88-.44-.17-.86-.38-1.29-.57Z"/>
      <path class="cls-23" d="m425.45,63.37c0,2.28,0,4.56.01,6.84-2.38-.54-2.42-2.87-2.2-4.25.32-2.06-.46-2.79-2.63-3.59,1.21-.76,2.02-1.27,2.83-1.78.37.71.69,1.44,1.11,2.11.19.29.58.45.88.67Z"/>
      <path class="cls-5" d="m379.58,117.09c0-.49,0-.98,0-1.47.48-1.25,1.34-2.5,1.36-3.75.03-2.25.73-3.89,2.6-5.15,1.54-1.04,2.44-.8,2.84,1.03.28,1.26.31,2.59.75,3.79.3.81,1.12,1.43,1.7,2.14,0,7.15,0,14.3,0,21.45,0,3.58.16,7.17-.14,10.72-.09,1.05-1.31,2.55-2.31,2.87-2.57.8-4.95-.3-5.36-2.15-.47-2.12-.65-4.29-.99-6.44-.06-.37-.32-.7-.48-1.05.4-2.76,1.02-5.5,1.15-8.27.12-2.64.4-5.4-1.13-7.84,0-1.14,0-2.28.01-3.42,0-.81,0-1.62,0-2.43Z"/>
      <path class="cls-14" d="m379.58,117.09c0,.81,0,1.62,0,2.43,0-.81,0-1.62,0-2.43Z"/>
    </g>
  </g>
</svg>